<?xml version="1.0" encoding="UTF-8" standalone="no"?>
<!-- Created with Inkscape (http://www.inkscape.org/) -->

<svg
   width="210mm"
   height="210mm"
   viewBox="0 0 210 210"
   version="1.1"
   id="svg1"
   inkscape:export-filename="bitmap.png"
   inkscape:export-xdpi="96"
   inkscape:export-ydpi="96"
   xml:space="preserve"
   inkscape:version="1.4.3 (fcd0343856, 2026-01-01)"
   sodipodi:docname="ccarps-logo.svg"
   xmlns:inkscape="http://www.inkscape.org/namespaces/inkscape"
   xmlns:sodipodi="http://sodipodi.sourceforge.net/DTD/sodipodi-0.dtd"
   xmlns="http://www.w3.org/2000/svg"
   xmlns:svg="http://www.w3.org/2000/svg"><sodipodi:namedview
     id="namedview1"
     pagecolor="#505050"
     bordercolor="#ffffff"
     borderopacity="1"
     inkscape:showpageshadow="0"
     inkscape:pageopacity="0"
     inkscape:pagecheckerboard="1"
     inkscape:deskcolor="#505050"
     inkscape:document-units="mm"
     inkscape:zoom="0.56819522"
     inkscape:cx="186.5556"
     inkscape:cy="79.198132"
     inkscape:window-width="1181"
     inkscape:window-height="1111"
     inkscape:window-x="26"
     inkscape:window-y="23"
     inkscape:window-maximized="0"
     inkscape:current-layer="layer1" /><defs
     id="defs1" /><g
     inkscape:label="Layer 1"
     inkscape:groupmode="layer"
     id="layer1"><path
       style="fill:#000000;stroke-width:1.61022"
       d="M 41.189829,197.8373 C 31.249451,189.46165 26.644252,178.34492 21.132746,149.42044 14.313162,113.63113 14.724407,103.81778 23.85239,84.52286 29.324772,72.955228 30.406855,68.782406 27.660911,69.836119 21.157745,72.331622 23.425109,66.756652 30.811102,62.090475 34.653381,59.663067 42.120835,54.06544 47.405445,49.651311 67.36171,32.982211 97.096027,26.7827 119.08828,34.705677 c 5.58877,2.013437 10.31386,3.677987 10.5002,3.699031 0.18634,0.02109 0.9438,-2.275305 1.68325,-5.102997 1.31453,-5.02669 1.5426,-5.040829 10.23671,-0.635088 5.84783,2.963403 9.36703,6.827963 10.27903,11.287808 0.79847,3.904655 3.66767,7.505559 6.7633,8.488084 6.73435,2.137391 9.55809,-0.369303 5.08668,-4.515589 -2.71301,-2.515762 -2.97772,-2.43008 -1.34339,0.43484 1.37493,2.410259 1.07027,2.971501 -0.93894,1.729731 -1.63585,-1.01101 -2.30508,-2.92102 -1.48715,-4.244461 0.81792,-1.32344 2.5513,-1.748571 3.85196,-0.944716 6.02116,3.721268 1.32099,-5.187858 -8.43166,-15.982148 -7.50249,-8.303795 -14.12196,-12.336551 -9.46697,-10.193814 12.15343,5.594345 28.92682,32.735904 40.99683,69.253414 l 5.03793,15.242108 -6.82059,21.13516 c -8.75939,27.14285 -18.66573,40.32545 -37.30845,49.64724 -22.5876,11.29434 -50.474266,11.45256 -76.270317,0.43275 -3.582721,-1.53049 -4.445613,-0.61365 -4.445613,4.72355 0,7.2805 -1.766647,8.04181 -7.811929,3.36645 -6.403846,-4.95268 -11.750965,-14.65598 -17.389132,-31.55569 -5.132151,-15.38299 -8.857579,-44.09319 -5.63158,-43.40007 3.244119,0.69703 15.595448,-6.51115 15.76909,-9.202766 0.09821,-1.522223 0.955571,-0.883072 1.905262,1.420332 3.200939,7.763594 28.996783,25.026004 37.397259,25.026004 9.49405,0 34.18909,7.04378 34.18909,9.75176 0,1.06362 -1.3718,3.30566 -3.04842,4.98229 -2.37098,2.37098 -1.78835,3.04842 2.62194,3.04842 11.42847,0 33.45103,-12.14762 33.45103,-18.45157 0,-3.2106 -13.37351,0.21121 -15.81284,4.04596 -1.2891,2.02656 -1.90419,1.69881 -1.93071,-1.02876 -0.0214,-2.20155 -2.93047,-6.71929 -6.46465,-10.03946 -3.53415,-3.32019 -5.83356,-7.57988 -5.1098,-9.466 0.72378,-1.88612 0.19645,-2.73743 -1.17183,-1.89177 -1.36828,0.84564 -4.4248,-2.52446 -6.79228,-7.489123 -3.27642,-6.870708 -5.86065,-9.028904 -10.81997,-9.036141 -7.11902,-0.009 -23.027731,-8.630953 -23.027731,-12.478222 0,-1.320556 2.572106,-2.791429 5.71579,-3.268618 l 5.715787,-0.867602 -6.350876,-3.554547 c -3.492981,-1.954984 -11.883499,-3.619309 -18.645595,-3.698483 -10.858246,-0.127208 -13.08429,0.816768 -19.052624,8.07888 -3.716849,4.522576 -8.138664,8.212544 -9.826259,8.199951 -1.687593,-0.01284 -6.260224,5.407101 -10.1614,12.043757 -6.273214,10.671968 -7.093048,14.582718 -7.093048,33.835008 0,19.49207 0.730499,22.87323 6.985964,32.33498 4.610239,6.97326 6.985962,13.92429 6.985962,20.43995 0,6.14195 1.989793,12.40289 5.265078,16.56674 6.439155,8.18605 3.482991,8.68807 -5.682839,0.96506 z m 15.883996,-33.32519 c -6.608666,-6.60867 -7.845184,-7.08986 -7.845184,-3.05312 0,2.63563 3.143682,8.90101 6.985962,13.92308 6.751475,8.82453 7.014803,8.927 7.845183,3.05312 0.586569,-4.1492 -1.630269,-8.56738 -6.985961,-13.92308 z m 72.175845,12.17423 c 13.6499,-3.07552 34.35565,-17.19304 39.66749,-27.0459 1.87212,-3.47261 1.51776,-4.06301 -1.69806,-2.82897 -2.23514,0.85769 -5.06573,4.19446 -6.29017,7.41499 -1.22445,3.22055 -4.28056,5.80544 -6.79137,5.74424 -7.60529,-0.1854 -29.92881,9.68923 -25.92154,11.46618 1.96571,0.87166 0.1446,1.10025 -4.04705,0.50798 -26.073023,-3.68407 -32.863902,-4.04377 -29.21403,-1.54741 2.425995,1.65929 2.689224,2.62039 0.724467,2.64515 -1.697332,0.0214 -4.357107,-2.33608 -5.910613,-5.23882 -1.676998,-3.1335 -4.34714,-4.69346 -6.572194,-3.83964 -2.061201,0.79096 -3.123255,0.42784 -2.360115,-0.80695 0.763138,-1.23477 -0.320647,-2.90054 -2.408409,-3.70169 -2.087764,-0.80116 -3.759579,-3.49305 -3.715144,-5.98197 0.07239,-4.05497 0.40246,-4.10943 3.175438,-0.52395 10.997931,14.22043 35.86251,18.43481 58.55547,9.9248 8.14839,-3.0557 18.58772,-8.86811 23.19852,-12.91645 4.61082,-4.04835 9.57759,-7.36062 11.03731,-7.36062 5.36638,0 11.28716,-16.90295 12.45772,-35.5649 0.97745,-15.58325 0.24138,-21.13426 -4.04221,-30.484199 -3.38237,-7.382814 -4.70956,-8.928481 -3.7473,-4.364181 1.71919,8.154816 1.84308,10.221664 1.29845,21.661462 -0.26849,5.639891 -1.36529,7.809588 -3.33304,6.593458 -1.83454,-1.133808 -2.24257,-0.695689 -1.08956,1.16991 5.90844,9.56005 -14.34275,34.89282 -32.74982,40.96771 -13.70455,4.52289 -36.78574,2.25546 -46.347431,-4.55306 -9.332944,-6.64563 -27.292053,-7.72477 -29.574397,-1.77709 -0.80423,2.0958 -3.784429,3.81053 -6.622664,3.81053 -8.122622,0 -6.464221,10.46781 3.095709,19.54006 9.757667,9.25992 23.904449,16.85865 27.383367,14.70856 1.356161,-0.83816 2.465746,-0.37593 2.465746,1.02717 0,1.40309 5.429999,2.96285 12.06666,3.46612 12.4511,0.94416 14.41772,0.79202 27.30877,-2.11252 z m -14.44824,-2.79984 c 1.83382,-0.73382 4.02486,-0.64357 4.86901,0.20055 0.84414,0.84415 -0.65627,1.44456 -3.33422,1.33425 -2.95936,-0.12192 -3.56131,-0.72385 -1.53479,-1.5348 z m 23.33949,-4.61552 c 0,-0.69859 0.57155,-1.27016 1.27016,-1.27016 0.6986,0 1.27018,0.57157 1.27018,1.27016 0,0.69859 -0.57158,1.27018 -1.27018,1.27018 -0.69861,0 -1.27016,-0.57159 -1.27016,-1.27018 z M 64.470741,159.10957 c 0,-0.6986 0.571577,-1.27017 1.270173,-1.27017 0.698597,0 1.270176,0.57157 1.270176,1.27017 0,0.69861 -0.571579,1.27018 -1.270176,1.27018 -0.698596,0 -1.270173,-0.57157 -1.270173,-1.27018 z M 48.363675,138.1517 c -2.237356,-14.07481 1.03205,-17.94796 11.547159,-13.6795 4.603737,1.86883 11.228325,4.01989 14.721306,4.78016 6.318788,1.37533 6.326424,1.35476 1.511541,-4.06794 -2.661635,-2.99763 -5.957021,-5.45026 -7.323079,-5.45026 -1.366059,0 -4.332567,-2.0027 -6.592241,-4.45044 -9.213556,-9.98035 -12.250392,-11.30268 -17.881357,-7.78608 -5.97686,3.73261 -6.464207,9.00393 -2.52891,27.35357 3.214623,14.98929 8.855815,17.83375 6.545581,3.30049 z m 68.105465,-0.50764 c 1.96212,-3.17474 -6.80135,-7.74849 -14.84639,-7.74849 -8.084194,0 -10.676139,3.97601 -4.815976,7.38766 5.694306,3.31508 17.700386,3.53542 19.662366,0.36083 z m 49.61561,-28.03977 c 0,-5.40651 1.71474,-11.544778 3.81053,-13.64055 7.65216,-7.652175 3.30921,-31.776517 -6.86412,-38.128966 -7.11664,-4.443757 -7.64416,-0.500859 -2.12494,15.882652 5.18997,15.406203 5.12949,30.891934 -0.16107,41.237114 -2.28259,4.46334 -0.36639,8.00627 3.15359,5.83082 1.2023,-0.74309 2.18601,-5.77457 2.18601,-11.18107 z m -15.69902,-9.768179 c 1.02629,-6.976204 -6.18231,-10.116366 -11.3531,-4.945567 -3.36642,3.366433 -3.31087,4.279102 0.49186,8.081836 5.35926,5.35927 9.8001,4.07696 10.86124,-3.136269 z m 37.7154,2.962389 c -0.93146,-0.93147 -1.69358,-0.16936 -1.69358,1.69356 0,1.86292 0.76212,2.62503 1.69358,1.69357 0.93144,-0.93146 0.93144,-2.45568 0,-3.38713 z M 143.47945,27.493162 c -2.2334,-2.895063 -6.2044,-7.764275 -9.95353,-10.089964 -3.74912,-2.325707 -5.10186,-4.178619 -3.00607,-4.117592 4.19845,0.122214 16.81372,6.143609 14.06104,4.916219 -0.99056,-0.441677 -2.12084,2.81189 0.19643,6.348481 2.31727,3.536592 14.17048,27.161719 13.42219,26.620773 -1.35135,-0.976914 -12.41268,-20.686955 -14.72006,-23.677917 z"
       id="path1"
       sodipodi:nodetypes="ssssscsccssssssssssscsssssssssssssssssssscsscccscssssssssssssssssssssssssssssssssssssssssssssssssssssssssssssssssssscsscscssssssssssssssscssss" /><path
       style="fill:#000000;stroke-width:1.61022"
       d="M 41.189829,197.8373 C 31.249451,189.46165 26.644252,178.34492 21.132746,149.42044 14.313162,113.63113 14.724407,103.81778 23.85239,84.52286 29.324772,72.955228 30.406855,68.782406 27.660911,69.836119 21.157745,72.331622 23.425109,66.756652 30.811102,62.090475 34.653381,59.663067 42.120835,54.06544 47.405445,49.651311 67.36171,32.982211 97.096027,26.7827 119.08828,34.705677 c 5.58877,2.013437 10.31386,3.677987 10.5002,3.699031 0.18634,0.02109 0.9438,-2.275305 1.68325,-5.102997 1.31453,-5.02669 1.5426,-5.040829 10.23671,-0.635088 5.84783,2.963403 9.36703,6.827963 10.27903,11.287808 0.79847,3.904655 3.66767,7.505559 6.7633,8.488084 6.73435,2.137391 9.55809,-0.369303 5.08668,-4.515589 -2.71301,-2.515762 -2.97772,-2.43008 -1.34339,0.43484 1.37493,2.410259 1.07027,2.971501 -0.93894,1.729731 -1.63585,-1.01101 -2.30508,-2.92102 -1.48715,-4.244461 0.81792,-1.32344 2.5513,-1.748571 3.85196,-0.944716 6.02116,3.721268 1.32099,-5.187858 -8.43166,-15.982148 -7.50249,-8.303795 -14.12196,-12.336551 -9.46697,-10.193814 12.15343,5.594345 28.92682,32.735904 40.99683,69.253414 l 5.03793,15.242108 -6.82059,21.13516 c -8.75939,27.14285 -18.66573,40.32545 -37.30845,49.64724 -22.5876,11.29434 -50.474266,11.45256 -76.270317,0.43275 -3.582721,-1.53049 -4.445613,-0.61365 -4.445613,4.72355 0,7.2805 -1.766647,8.04181 -7.811929,3.36645 -6.403846,-4.95268 -11.750965,-14.65598 -17.389132,-31.55569 -5.132151,-15.38299 -8.857579,-44.09319 -5.63158,-43.40007 3.244119,0.69703 15.595448,-6.51115 15.76909,-9.202766 0.09821,-1.522223 0.955571,-0.883072 1.905262,1.420332 3.200939,7.763594 28.996783,25.026004 37.397259,25.026004 9.49405,0 34.18909,7.04378 34.18909,9.75176 0,1.06362 -1.3718,3.30566 -3.04842,4.98229 -2.37098,2.37098 -1.78835,3.04842 2.62194,3.04842 11.42847,0 33.45103,-12.14762 33.45103,-18.45157 0,-3.2106 -13.37351,0.21121 -15.81284,4.04596 -1.2891,2.02656 -1.90419,1.69881 -1.93071,-1.02876 -0.0214,-2.20155 -2.93047,-6.71929 -6.46465,-10.03946 -3.53415,-3.32019 -5.83356,-7.57988 -5.1098,-9.466 0.72378,-1.88612 0.19645,-2.73743 -1.17183,-1.89177 -1.36828,0.84564 -4.4248,-2.52446 -6.79228,-7.489123 -3.27642,-6.870708 -5.86065,-9.028904 -10.81997,-9.036141 -7.11902,-0.009 -23.027731,-8.630953 -23.027731,-12.478222 0,-1.320556 2.572106,-2.791429 5.71579,-3.268618 l 5.715787,-0.867602 -6.350876,-3.554547 c -3.492981,-1.954984 -11.883499,-3.619309 -18.645595,-3.698483 -10.858246,-0.127208 -13.08429,0.816768 -19.052624,8.07888 -3.716849,4.522576 -8.138664,8.212544 -9.826259,8.199951 -1.687593,-0.01284 -6.260224,5.407101 -10.1614,12.043757 -6.273214,10.671968 -7.093048,14.582718 -7.093048,33.835008 0,19.49207 0.730499,22.87323 6.985964,32.33498 4.610239,6.97326 6.985962,13.92429 6.985962,20.43995 0,6.14195 1.989793,12.40289 5.265078,16.56674 6.439155,8.18605 3.482991,8.68807 -5.682839,0.96506 z m 15.883996,-33.32519 c -6.608666,-6.60867 -7.845184,-7.08986 -7.845184,-3.05312 0,2.63563 3.143682,8.90101 6.985962,13.92308 6.751475,8.82453 7.014803,8.927 7.845183,3.05312 0.586569,-4.1492 -1.630269,-8.56738 -6.985961,-13.92308 z m 72.175845,12.17423 c 13.6499,-3.07552 34.35565,-17.19304 39.66749,-27.0459 1.87212,-3.47261 1.51776,-4.06301 -1.69806,-2.82897 -2.23514,0.85769 -5.06573,4.19446 -6.29017,7.41499 -1.22445,3.22055 -4.28056,5.80544 -6.79137,5.74424 -7.60529,-0.1854 -29.92881,9.68923 -25.92154,11.46618 1.96571,0.87166 0.1446,1.10025 -4.04705,0.50798 -26.073023,-3.68407 -32.863902,-4.04377 -29.21403,-1.54741 2.425995,1.65929 2.689224,2.62039 0.724467,2.64515 -1.697332,0.0214 -4.357107,-2.33608 -5.910613,-5.23882 -1.676998,-3.1335 -4.34714,-4.69346 -6.572194,-3.83964 -2.061201,0.79096 -3.123255,0.42784 -2.360115,-0.80695 0.763138,-1.23477 -0.320647,-2.90054 -2.408409,-3.70169 -2.087764,-0.80116 -3.759579,-3.49305 -3.715144,-5.98197 0.07239,-4.05497 0.40246,-4.10943 3.175438,-0.52395 10.997931,14.22043 35.86251,18.43481 58.55547,9.9248 8.14839,-3.0557 18.58772,-8.86811 23.19852,-12.91645 4.61082,-4.04835 9.57759,-7.36062 11.03731,-7.36062 5.36638,0 11.28716,-16.90295 12.45772,-35.5649 0.97745,-15.58325 0.24138,-21.13426 -4.04221,-30.484199 -3.38237,-7.382814 -4.70956,-8.928481 -3.7473,-4.364181 1.71919,8.154816 1.84308,10.221664 1.29845,21.661462 -0.26849,5.639891 -1.36529,7.809588 -3.33304,6.593458 -1.83454,-1.133808 -2.24257,-0.695689 -1.08956,1.16991 5.90844,9.56005 -14.34275,34.89282 -32.74982,40.96771 -13.70455,4.52289 -36.78574,2.25546 -46.347431,-4.55306 -9.332944,-6.64563 -27.292053,-7.72477 -29.574397,-1.77709 -0.80423,2.0958 -3.784429,3.81053 -6.622664,3.81053 -8.122622,0 -6.464221,10.46781 3.095709,19.54006 9.757667,9.25992 23.904449,16.85865 27.383367,14.70856 1.356161,-0.83816 2.465746,-0.37593 2.465746,1.02717 0,1.40309 5.429999,2.96285 12.06666,3.46612 12.4511,0.94416 14.41772,0.79202 27.30877,-2.11252 z m -14.44824,-2.79984 c 1.83382,-0.73382 4.02486,-0.64357 4.86901,0.20055 0.84414,0.84415 -0.65627,1.44456 -3.33422,1.33425 -2.95936,-0.12192 -3.56131,-0.72385 -1.53479,-1.5348 z m 23.33949,-4.61552 c 0,-0.69859 0.57155,-1.27016 1.27016,-1.27016 0.6986,0 1.27018,0.57157 1.27018,1.27016 0,0.69859 -0.57158,1.27018 -1.27018,1.27018 -0.69861,0 -1.27016,-0.57159 -1.27016,-1.27018 z M 64.470741,159.10957 c 0,-0.6986 0.571577,-1.27017 1.270173,-1.27017 0.698597,0 1.270176,0.57157 1.270176,1.27017 0,0.69861 -0.571579,1.27018 -1.270176,1.27018 -0.698596,0 -1.270173,-0.57157 -1.270173,-1.27018 z M 48.363675,138.1517 c -2.237356,-14.07481 1.03205,-17.94796 11.547159,-13.6795 4.603737,1.86883 11.228325,4.01989 14.721306,4.78016 6.318788,1.37533 6.326424,1.35476 1.511541,-4.06794 -2.661635,-2.99763 -5.957021,-5.45026 -7.323079,-5.45026 -1.366059,0 -4.332567,-2.0027 -6.592241,-4.45044 -9.213556,-9.98035 -12.250392,-11.30268 -17.881357,-7.78608 -5.97686,3.73261 -6.464207,9.00393 -2.52891,27.35357 3.214623,14.98929 8.855815,17.83375 6.545581,3.30049 z m 68.105465,-0.50764 c 1.96212,-3.17474 -6.80135,-7.74849 -14.84639,-7.74849 -8.084194,0 -10.676139,3.97601 -4.815976,7.38766 5.694306,3.31508 17.700386,3.53542 19.662366,0.36083 z m 49.61561,-28.03977 c 0,-5.40651 1.71474,-11.544778 3.81053,-13.64055 7.65216,-7.652175 3.30921,-31.776517 -6.86412,-38.128966 -7.11664,-4.443757 -7.64416,-0.500859 -2.12494,15.882652 5.18997,15.406203 5.12949,30.891934 -0.16107,41.237114 -2.28259,4.46334 -0.36639,8.00627 3.15359,5.83082 1.2023,-0.74309 2.18601,-5.77457 2.18601,-11.18107 z m -15.69902,-9.768179 c 1.02629,-6.976204 -6.18231,-10.116366 -11.3531,-4.945567 -3.36642,3.366433 -3.31087,4.279102 0.49186,8.081836 5.35926,5.35927 9.8001,4.07696 10.86124,-3.136269 z m 37.7154,2.962389 c -0.93146,-0.93147 -1.69358,-0.16936 -1.69358,1.69356 0,1.86292 0.76212,2.62503 1.69358,1.69357 0.93144,-0.93146 0.93144,-2.45568 0,-3.38713 z M 143.47945,27.493162 c -2.2334,-2.895063 -6.2044,-7.764275 -9.95353,-10.089964 -3.74912,-2.325707 -5.10186,-4.178619 -3.00607,-4.117592 4.19845,0.122214 16.92691,6.40085 14.19481,5.091143 -0.97801,-0.468831 -2.25461,2.636966 0.0627,6.173557 2.31727,3.536592 14.17048,27.161719 13.42219,26.620773 -1.35135,-0.976914 -12.41268,-20.686955 -14.72006,-23.677917 z"
       id="path2"
       sodipodi:nodetypes="ssssscsccssssssssssscsssssssssssssssssssscsscccscssssssssssssssssssssssssssssssssssssssssssssssssssssssssssssssssssscsscscssssssssssssssscssss" /></g></svg>
